<?xml version="1.0" encoding="UTF-8"?>
<!DOCTYPE svg PUBLIC "-//W3C//DTD SVG 1.1//EN" "http://www.w3.org/Graphics/SVG/1.1/DTD/svg11.dtd">
<!-- Creator: CorelDRAW (Evaluation Version) -->
<svg xmlns="http://www.w3.org/2000/svg" xml:space="preserve" width="714.548mm" height="519.705mm" version="1.1" style="shape-rendering:geometricPrecision; text-rendering:geometricPrecision; image-rendering:optimizeQuality; fill-rule:evenodd; clip-rule:evenodd"
viewBox="0 0 71454.5 51970.3"
 xmlns:xlink="http://www.w3.org/1999/xlink"
 xmlns:xodm="http://www.corel.com/coreldraw/odm/2003">
 <defs>
  <style type="text/css">
   <![CDATA[
    .fil0 {fill:#81B53F}
   ]]>
  </style>
 </defs>
 <g id="Layer_x0020_1">
  <metadata id="CorelCorpID_0Corel-Layer"/>
  <path class="fil0" d="M35727.12 -0.06c19728.43,0 35727.37,11636.41 35727.37,25984.84 0,14349.09 -15998.94,25985.5 -35727.37,25985.5 -19727.77,0 -35727.05,-11636.41 -35727.05,-25985.5 0,-14348.43 15999.28,-25984.84 35727.05,-25984.84zm13683.91 23950.58l-34.1 0 3.31 -3447.72 822.78 -826.42 -4393.99 -4017.53 -3989.72 2.64 -3.31 -2.64 -15225.51 0 4409.88 4007.59 -700.6 873.77 -143.7 3453.68 -1197.57 -17.21 -24938.91 1029.38c266.86,415.53 1474.7,4167.19 1805.14,4557.55l22391.78 -4778.39 -18701.7 5641.9c490.69,297.99 1251.87,3531.82 1785.61,3805.96l21636.21 -10116.35 -15566.2 9333.3c1036.33,318.85 1509.8,3652.66 2617.32,3911.91l14757.67 -13358.11 -8621.11 11104.33c1840.57,229.78 2266.36,3880.46 4168.51,3971.18l5611.44 -15122.87 177.47 11319.88c2343.84,122.5 4607.22,3717.22 6698.43,3471.56l-6002.46 -14712.97 10123.63 10921.57c1523.71,-298.32 5514.1,2171.33 6929.21,1770.04l-15601.96 -12645.6 19042.39 9326.35 4973.41 305.93 -22477.86 -9600.82 23823.77 6057.75 2821.28 -863.84 -24426.7 -5192.27 25012.07 1357.83 1319.42 -994.62 -18905.32 -387.06 0 -139.72zm-35866.77 -286.73c-1490.26,-3890.06 4028.79,-6834.84 6054.77,-2475.29l-0.66 -2029.95 -912.84 -1213.47 5060.82 -5093.93 15725.13 0 1588.27 1733.95 83.11 -0.99 4.3 -4.3 5070.43 0 801.58 721.46c668.49,-1200.22 1828.98,-1992.21 3149.07,-1992.21 1630.99,0 3017.3,1213.13 3534.47,2905.71 1783.62,-198.66 2815.32,1495.23 2815.32,3039.81 0,1544.89 -1005.21,3412.95 -2940.47,3062.65l0 1207.51 1942.54 0 7220.9 108.93c1328.03,39.4 5438.28,-992.97 4671.45,-3635.78 -2957.03,-10197.46 -18237.49,-17054.49 -30868.85,-17133.62 -13942.18,-89.06 -28451.52,6713.33 -31314.19,16783.32 -437.05,1538.61 730.07,2950.08 2623.62,3507.32 1385.3,407.91 3658.62,514.19 5691.23,508.9zm22267.29 -2860.69l2025.32 0 0 2673.95 -2025.32 0 0 -2673.95zm16567.11 2721.63l0 -1349.22c-274.15,-110.59 -526.78,-270.18 -751.93,-472.15 -434.4,213.89 -910.85,334.74 -1410.47,342.03l79.47 1479.34 2082.93 0zm-9705.12 -2721.63l2025.65 0 0 2673.95 -2025.65 0 0 -2673.95zm-1421.73 0l-2025.65 0 0 2673.95 2025.65 0 0 -2673.95z"/>
 </g>
</svg>
