<?xml version="1.0" encoding="UTF-8"?>
<svg id="Layer_1" xmlns="http://www.w3.org/2000/svg" viewBox="0 0 7269.9 1473.18">
  <defs>
    <style>
      .cls-1 {
        fill: #3b862d;
        fill-rule: evenodd;
      }
    </style>
  </defs>
  <path class="cls-1" d="M1012.74,0c559.23,0,1012.75,329.85,1012.75,736.58s-453.52,736.6-1012.75,736.6S0,1143.33,0,736.58,453.52,0,1012.74,0h0ZM1400.63,678.92h-.97l.09-97.73,23.32-23.43-124.55-113.88-113.09.07-.09-.07h-431.59l125,113.6-19.86,24.77-4.07,97.9-33.95-.49-706.93,29.18c7.56,11.78,41.8,118.13,51.17,129.19l634.73-135.45-530.13,159.93c13.91,8.45,35.49,100.11,50.62,107.89l613.31-286.76-441.25,264.57c29.38,9.04,42.8,103.54,74.19,110.89l418.33-378.66-244.38,314.77c52.17,6.51,64.24,110,118.16,112.57l159.07-428.68,5.03,320.88c66.44,3.47,130.6,105.37,189.88,98.41l-170.15-417.06,286.97,309.59c43.19-8.46,156.31,61.55,196.42,50.17l-442.26-358.46,539.79,264.37,140.98,8.67-637.17-272.15,675.32,171.72,79.97-24.49-692.41-147.18,709.01,38.49,37.4-28.19-535.9-10.97v-3.96h0ZM383.93,670.79c-42.24-110.27,114.2-193.74,171.63-70.17l-.02-57.54-25.88-34.4,143.46-144.4h445.75l45.02,49.15,2.36-.03.12-.12h143.73l22.72,20.45c18.95-34.02,51.85-56.47,89.27-56.47,46.23,0,85.53,34.39,100.19,82.37,50.56-5.63,79.8,42.38,79.8,86.17s-28.49,96.75-83.35,86.82v34.23h55.06l204.69,3.09c37.65,1.12,154.16-28.15,132.42-103.06-83.82-289.06-516.97-483.44-875.03-485.68-395.21-2.52-806.5,190.3-887.65,475.75-12.39,43.61,20.69,83.62,74.37,99.42,39.27,11.56,103.71,14.58,161.33,14.43h0ZM1015.13,589.7v75.8h57.41v-75.8h-57.41ZM1484.75,666.85v-38.25c-7.77-3.13-14.93-7.66-21.31-13.38-12.31,6.06-25.82,9.49-39.98,9.7l2.25,41.93h59.04ZM1209.65,589.7v75.8h57.42v-75.8h-57.42ZM1169.35,589.7h-57.42v75.8h57.42v-75.8Z"/>
  <path class="cls-1" d="M6088.63,368.3v-83.97h-291.55l-32.53,34.07v81.57h293.16l30.92-31.67h0ZM2970.87,857.38v-106.95h72.86v-176.61h-72.86v-117.3h76.9l89.44,33.25,45.21,84.04v496.12h-105.42l-33.27-32.66v-179.9h-72.86ZM7269.9,952.54v-135.51l-22.99-96.64-245.6-23.84v-128.32h121.13l34.18,34.05h97.42v-112.5l-34.07-32.45h-222.68l-94.97,32.45-37.37,84.75v122.02l30.97,104.58,232.13,23.82v136.27h-112.47l-30.88-30.89h-101.42v104.58l34.86,35.05h216.31l91.14-31.09,44.32-86.31h0ZM6804.77,1037.28V457.33h-100.59l-32.37,33.25v578.55h102.12l30.84-31.85h0ZM6615.5,1069.13v-45.35l-55.55-221.02-51.42-41.21,51.42-41.17,55.55-217.89v-45.17h-138.67v45.17l-51.53,205.89h-108.54v-251.06h-100.64l-32.5,31.66v580.14h100.67l32.47-31.85v-218.65h108.54l51.53,205.16v45.35h138.67ZM6118.68,953.27v-495.93h-100.65l-32.48,31.66v464.27h-145.8v-464.27l-31.62-31.66h-101.44l.77,495.93,40.44,84.01,86.38,32.66h155.26l84-32.66,45.12-84.01h0ZM4969.03,1069.13v-45.35l-55.46-221.02-51.55-41.21,51.55-41.17,55.46-217.89v-45.17h-138.63v45.17l-51.53,205.89h-108.51v-251.06h-100.55l-32.55,31.66v580.14h100.66l32.43-31.85v-218.65h108.51l51.53,205.16v45.35h138.63ZM4474.67,1038.11v-156.91h-97.46l-32.49,30.79v39.77h-123.6v-377.22h125.19v38.87l32.49,31.63h95.86v-155.24l-34.1-32.45h-225.78l-91.93,32.45-40.42,84.75v377.22l40.42,87.93,91.93,30.26h228.99l30.89-31.83h0ZM4018.26,953.27v-495.93h-100.51l-32.47,31.66v464.27h-145.86v-464.27l-31.64-31.66h-101.5l.79,495.93,40.46,84.01,86.39,32.66h155.23l83.95-32.66,45.15-84.01h0ZM3544.53,1069.94v-118.19h-164.06v-494.42h-100.61l-32.46,32.45v461.97l39.62,86.35,92.66,31.83h164.85ZM5516.03,1049.9v-59.15l-78.69-39.54v-493.87h-100.65l-32.45,31.66v464.27h-145.8v-464.27l-31.74-31.66h-101.38l.85,495.93,40.36,84.01,86.32,32.66h155.34l74.83-29.11v125.68h87.16l45.85-116.61ZM2970.87,456.53v117.3h-72.86v176.61h72.86v106.95h-72.86v179.9l-31.79,32.66h-106.86l.73-496.12,40.48-84.04,91.91-33.25h78.39ZM2694.36,779.26v-321.93h-101.44l-31.69,32.45v271.24l-81.09,191.69h-64.62v-462.92l-32.53-32.45h-100.59l.79,579.36,33.26,32.68h183.52l89.53-32.68,104.85-257.44Z"/>
</svg>